<?xml version="1.0" encoding="UTF-8"?>
<!DOCTYPE svg PUBLIC "-//W3C//DTD SVG 1.1//EN" "http://www.w3.org/Graphics/SVG/1.1/DTD/svg11.dtd">
<svg xmlns="http://www.w3.org/2000/svg" version="1.1" width="281px" height="304px" viewBox="-0.5 -0.5 281 304"><defs/><g><ellipse cx="140" cy="145.75" rx="140" ry="140" fill="#039be5" stroke="none" pointer-events="none"/><ellipse cx="140" cy="145.75" rx="115" ry="115" fill="#03a9f4" stroke="none" pointer-events="none"/><ellipse cx="140" cy="145.75" rx="90" ry="90" fill="#29b6f6" stroke="none" pointer-events="none"/><path d="M 79.37 60.63 L 79.37 -2.12 Q 79.37 -12.12 87.94 -6.98 L 192.05 55.49 Q 200.62 60.63 192.05 65.77 L 87.94 128.24 Q 79.37 133.38 79.37 123.38 Z" fill="#b3e5fc" stroke="none" transform="rotate(-90,139.99,60.63)" pointer-events="none"/><path d="M 111.93 89.44 L 111.93 65.75 Q 111.93 55.75 120.5 60.9 L 159.5 84.29 Q 168.07 89.44 159.5 94.58 L 120.5 117.97 Q 111.93 123.12 111.93 113.12 Z" fill="#e1f5fe" stroke="none" transform="rotate(90,140,89.43)" pointer-events="none"/><path d="M 79.38 178.5 L 79.38 115.75 Q 79.38 105.75 87.95 110.89 L 192.06 173.36 Q 200.63 178.5 192.06 183.64 L 87.95 246.11 Q 79.38 251.25 79.38 241.25 Z" fill="#81d4fa" stroke="none" transform="rotate(90,140.01,178.5)" pointer-events="none"/><path d="M 93.7 255.83 L 93.7 133.12 Q 93.7 123.12 99.42 131.32 L 180.6 247.62 Q 186.32 255.83 180.6 264.03 L 99.42 380.33 Q 93.7 388.53 93.7 378.53 Z" fill="#4fc3f7" stroke="none" transform="rotate(-90,140.01,255.83)" pointer-events="none"/><rect x="10" y="123.12" width="95" height="7.31" rx="1.1" ry="1.1" fill="#e1f5fe" stroke="none" transform="rotate(60,57.5,126.77)" pointer-events="none"/><rect x="60" y="147.42" width="95" height="7.31" rx="1.1" ry="1.1" fill="#e1f5fe" stroke="none" transform="rotate(-225,107.5,151.08)" pointer-events="none"/><rect x="168.07" y="200" width="95" height="7.31" rx="1.1" ry="1.1" fill="#e1f5fe" stroke="none" transform="rotate(60,215.57,203.65)" pointer-events="none"/><rect x="180" y="115.81" width="95" height="7.31" rx="1.1" ry="1.1" fill="#e1f5fe" stroke="none" transform="rotate(-60,227.5,119.46)" pointer-events="none"/></g></svg>
